<!-- Generated by IcoMoon.io -->
<svg version="1.1" xmlns="http://www.w3.org/2000/svg" width="39" height="32" viewBox="0 0 39 32">
<title>mail</title>
<path fill="#757575" d="M35.692 2.417h-32c-2.036 0-3.692 1.654-3.692 3.692v22.139c0 2.036 1.657 3.692 3.692 3.692h32c2.036 0 3.692-1.657 3.692-3.692v-22.142c0-2.036-1.657-3.692-3.692-3.692zM35.692 4.879c0.167 0 0.327 0.032 0.473 0.094l-16.473 14.27-16.473-14.27c0.139-0.060 0.302-0.096 0.472-0.096h32zM35.692 29.479h-32c-0.68 0-1.231-0.551-1.231-1.231v0-20.677l16.423 14.228c0.215 0.188 0.498 0.302 0.807 0.302s0.593-0.114 0.809-0.303l-0.001 0.001 16.423-14.228v20.677c0 0.68-0.551 1.231-1.231 1.231v0z"></path>
</svg>
