<!-- Generated by IcoMoon.io -->
<svg version="1.1" xmlns="http://www.w3.org/2000/svg" width="19" height="32" viewBox="0 0 19 32">
<title>smartphone</title>
<path fill="#757575" d="M16 1.85h-13.176c-1.557 0-2.824 1.267-2.824 2.824v24.456c0 1.557 1.267 2.824 2.824 2.824h13.176c1.557 0 2.824-1.267 2.824-2.824v-24.457c0-1.555-1.267-2.822-2.824-2.822zM2.824 3.733h13.176c0.52 0 0.941 0.421 0.941 0.941v0 19.753h-15.059v-19.755c0-0.52 0.421-0.941 0.941-0.941v0zM16 30.071h-13.176c-0.52 0-0.941-0.421-0.941-0.941v0-2.822h15.059v2.824c0 0.52-0.421 0.941-0.941 0.941v0z"></path>
<path fill="#757575" d="M4.431 27.699c0.17 0.154 0.276 0.375 0.276 0.621s-0.106 0.467-0.275 0.621l-0.001 0.001c-0.175 0.16-0.409 0.258-0.666 0.258s-0.491-0.098-0.667-0.259l0.001 0.001c-0.17-0.154-0.276-0.375-0.276-0.621s0.106-0.467 0.275-0.621l0.001-0.001c0.175-0.16 0.409-0.258 0.666-0.258s0.491 0.098 0.667 0.259l-0.001-0.001z"></path>
</svg>
